<?xml version="1.0" encoding="UTF-8"?>
<svg width="512px" height="512px" viewBox="0 0 512 512" version="1.1" xmlns="http://www.w3.org/2000/svg" xmlns:xlink="http://www.w3.org/1999/xlink">
    <!-- Generator: Sketch 54.1 (76490) - https://sketchapp.com -->
    <title>icon</title>
    <desc>Created with Sketch.</desc>
    <g id="Page-2" stroke="none" stroke-width="1" fill="none" fill-rule="evenodd">
        <g id="icon">
            <rect id="Rectangle" stroke="#979797" fill="#392C78" x="0.5" y="0.5" width="511" height="511"></rect>
            <g id="d4a718b9233977d986eddd77fef3a5a9" transform="translate(61.000000, 61.000000)" fill="#FFFFFF" fill-rule="nonzero">
                <path d="M272.725691,257.210497 L146.301775,257.210497 C134.301009,257.210497 131.290915,250.589768 130.617605,246.70455 L129.389804,239.76666 C116.438482,166.97829 109.032068,126.461016 107.408202,119.483481 C105.942762,113.893525 103.605979,111.911271 101.942506,111.911271 L76.9508112,111.911271 C74.2179634,111.911271 72,109.691146 72,106.955635 C72,104.220125 74.2179634,102 76.9508112,102 L101.942506,102 C104.556535,102 113.428388,103.070417 117.032579,117.144421 C119.607001,128.086464 134.301009,210.865396 139.172607,238.061922 L140.400408,244.960166 C140.558834,245.594487 140.836079,247.338871 146.380988,247.338871 L272.804904,247.338871 C275.537752,247.338871 277.755715,249.558996 277.755715,252.294506 C277.676502,255.030017 275.498145,257.210497 272.725691,257.210497 L272.725691,257.210497 Z M258.348535,217.129318 L130.538392,217.129318 C127.805544,217.129318 125.587581,214.909194 125.587581,212.173683 C125.587581,209.438173 127.805544,207.218048 130.538392,207.218048 L258.348535,207.218048 C267.141176,207.218048 268.923468,200.359449 269.002681,200.042288 C269.517565,198.060034 281.478725,153.578252 284.726457,142.437984 C285.122522,141.129696 285.399767,139.385312 284.726457,138.27525 C284.01354,137.165188 282.270855,136.610157 281.478725,136.491221 L114.854222,136.491221 C112.121374,136.491221 109.903411,134.271097 109.903411,131.535586 C109.903411,128.800076 112.121374,126.579951 114.854222,126.579951 L281.835183,126.579951 C282.033216,126.579951 282.191642,126.579951 282.350068,126.619596 C283.062985,126.698886 289.439629,127.491788 292.925001,132.724939 C294.469654,135.063998 295.9747,139.147442 294.192408,145.21314 C290.944676,156.194827 278.666664,201.984897 278.587451,202.420993 C277.35965,207.535209 271.537496,217.129318 258.348535,217.129318 L258.348535,217.129318 Z M156.559856,312 C145.272006,312 136.043694,302.762696 136.043694,291.463847 C136.043694,280.164999 145.272006,270.927695 156.559856,270.927695 C167.847706,270.927695 177.076018,280.164999 177.076018,291.463847 C177.076018,302.762696 167.847706,312 156.559856,312 L156.559856,312 Z M156.559856,280.759675 C150.698095,280.759675 145.945317,285.517085 145.945317,291.384557 C145.945317,297.252029 150.698095,302.009439 156.559856,302.009439 C162.421616,302.009439 167.174395,297.252029 167.174395,291.384557 C167.174395,285.517085 162.38201,280.759675 156.559856,280.759675 L156.559856,280.759675 Z M248.684551,312 C237.396702,312 228.16839,302.762696 228.16839,291.463847 C228.16839,280.164999 237.396702,270.927695 248.684551,270.927695 C259.972401,270.927695 269.200713,280.164999 269.200713,291.463847 C269.200713,302.762696 259.972401,312 248.684551,312 L248.684551,312 Z M248.684551,280.759675 C242.822791,280.759675 238.070012,285.517085 238.070012,291.384557 C238.070012,297.252029 242.822791,302.009439 248.684551,302.009439 C254.546312,302.009439 259.299091,297.252029 259.299091,291.384557 C259.299091,285.517085 254.546312,280.759675 248.684551,280.759675 L248.684551,280.759675 Z" id="Shape"></path>
                <path d="M195.5,0 C87.5361224,0 0,87.5361224 0,195.5 C0,303.463878 87.5361224,391 195.5,391 C303.463878,391 391,303.463878 391,195.5 C391,87.5361224 303.463878,0 195.5,0 Z M195.5,381.145204 C92.9622449,381.145204 9.85479592,298.037755 9.85479592,195.5 C9.85479592,92.9622449 92.9622449,9.85479592 195.5,9.85479592 C298.037755,9.85479592 381.145204,92.9622449 381.145204,195.5 C381.145204,298.037755 298.037755,381.145204 195.5,381.145204 Z" id="Shape"></path>
            </g>
        </g>
    </g>
</svg>